<?xml version="1.0" encoding="utf-8"?>
<!-- Generator: Adobe Illustrator 23.0.2, SVG Export Plug-In . SVG Version: 6.00 Build 0)  -->
<svg version="1.1" id="Layer_1" xmlns="http://www.w3.org/2000/svg" xmlns:xlink="http://www.w3.org/1999/xlink" x="0px" y="0px"
	 viewBox="0 0 800 600" style="enable-background:new 0 0 800 600;" xml:space="preserve">
<style type="text/css">
	.st0{opacity:0.8;fill:#F2F2F2;}
	.st1{opacity:0.4;fill:#F2F2F2;}
</style>
<path class="st0" d="M514.38,439.3l-26.87-36.42c-5.3-7.18-15.4-8.7-22.58-3.4L317.01,508.63c0,0,0,0,0,0l-185.3-243.81c0,0,0,0,0,0
	l103.5-48.58c0.03-0.04,0.05-0.08,0.08-0.12v-49.18c-0.08-0.05-0.11-0.07-0.19-0.12l-135.1,63.41c-0.04,0-0.08,0.01-0.13,0.01
	l-13.53,6.92c0,0.01-0.01,0.03,0,0.04l-5.68,4.32c-5.17,3.93-6.18,11.31-2.25,16.49l233.82,307.66l10.9,14.77
	c5.3,7.18,15.4,8.7,22.58,3.4l165.28-121.97C518.16,456.58,519.68,446.47,514.38,439.3z M163.8,219.41l39.63-19.58
	c2.09-1.03,4.76-0.59,6.08,1.34c1.6,2.34,0.72,5.46-1.73,6.67l-39.63,19.58c-2.09,1.03-4.76,0.59-6.08-1.34
	C160.47,223.74,161.35,220.62,163.8,219.41z M426.32,503.63c-8.95,5.65-21.09,2.5-27.12-7.04c-6.03-9.54-3.67-21.86,5.28-27.51
	c8.95-5.65,21.09-2.5,27.12,7.04C437.63,485.66,435.27,497.98,426.32,503.63z"/>
<path class="st0" d="M440.95,44.36c-86.78,0-157.12,68.63-157.12,153.29c0,40.84,16.41,77.93,43.1,105.4l-9.47,42.08l41.06-16.99
	c23.97,14.44,52.2,22.8,82.44,22.8c86.78,0,157.12-68.63,157.12-153.29S527.73,44.36,440.95,44.36z M462.67,261.53h-91.98
	c-7.06,0-12.77-5.72-12.77-12.77s5.72-12.77,12.77-12.77h91.98c7.06,0,12.77,5.72,12.77,12.77S469.72,261.53,462.67,261.53z
	 M511.21,207.88H373.25c-7.06,0-12.77-5.72-12.77-12.77s5.72-12.77,12.77-12.77h137.96c7.06,0,12.77,5.72,12.77,12.77
	S518.27,207.88,511.21,207.88z M511.21,156.78H373.25c-7.06,0-12.77-5.72-12.77-12.77s5.72-12.77,12.77-12.77h137.96
	c7.06,0,12.77,5.72,12.77,12.77S518.27,156.78,511.21,156.78z"/>
<g>
	<path class="st1" d="M538.89,49.39c3.18-4.47,2.62-10.38-0.91-14.29c-25.55-15.5-55.03-25.36-86.89-27.61
		C344.11-0.07,251.27,80.52,243.72,187.49c-3.6,50.99,12.86,98.73,42.62,135.6c3.73,2.06,8.42,1.99,12.13-0.64
		c4.67-3.31,6.04-9.45,3.58-14.43c-25.7-32.54-39.81-74.38-36.66-119c6.71-95.01,89.17-166.59,184.17-159.88
		c28.42,2.01,54.72,10.83,77.48,24.71C531.41,54.85,536.13,53.28,538.89,49.39z"/>
</g>
<g>
	<path class="st1" d="M564.04,67.03c3.7-4.05,9.59-4.76,14.16-2.13c20.56,21.69,36.44,48.42,45.38,79.08
		c30.03,102.95-29.09,210.74-132.03,240.77c-49.07,14.31-99.22,8.34-141.54-12.95c-2.8-3.21-3.72-7.81-1.94-11.99
		c2.25-5.27,7.96-7.9,13.34-6.55c37.24,18.23,81.12,23.17,124.06,10.64c91.43-26.67,143.93-122.41,117.27-213.84
		c-7.98-27.35-22.17-51.18-40.55-70.49C560.29,75.49,560.83,70.55,564.04,67.03z"/>
</g>
</svg>
